<svg width="40" height="40" viewBox="0 0 40 40" fill="none" xmlns="http://www.w3.org/2000/svg">
<circle cx="20" cy="20" r="20" fill="#9B51E0"/>
<path d="M19.4062 12.7222C19.4062 10.9444 18 10 16.0312 10H10.35C10.7438 8.5 10.9688 7.05556 10.9688 5.83333C10.9688 1 9.61875 0 8.4375 0C7.65 0 7.0875 0.0555556 6.3 0.555556C6.075 0.666667 5.9625 0.888889 5.90625 1.11111L5.0625 5.61111C4.1625 8 1.85625 10.0556 0 11.4444V23.3333C0.61875 23.3333 1.40625 23.6667 2.1375 24.0555C3.0375 24.5 3.99375 24.9444 5.0625 24.9444H13.1062C14.7937 24.9444 16.0312 23.6111 16.0312 22.4444C16.0312 22.2222 16.0312 22 15.975 21.8333C17.0437 21.4444 17.7188 20.5556 17.7188 19.5556C17.7188 19.0556 17.6063 18.6111 17.4375 18.2778C18.0562 17.8333 18.7312 17.1111 18.7312 16.2222C18.7312 15.7778 18.5063 15.2222 18.1687 14.8333C18.9 14.2778 19.4062 13.5 19.4062 12.7222ZM17.6625 12.7222C17.6625 13.3795 17.2262 13.6706 16.8563 13.9174C16.6322 14.067 16.4324 14.2003 16.3687 14.3889C16.2897 14.6491 16.4328 14.8362 16.6073 15.0643C16.8053 15.3232 17.0437 15.635 17.0437 16.1667C17.0437 16.8158 16.5545 17.0657 16.1385 17.2782C15.878 17.4113 15.6462 17.5297 15.5813 17.7222C15.4669 18.0328 15.5705 18.2429 15.7 18.5057C15.8253 18.7601 15.975 19.0637 15.975 19.5556V19.7222C15.8673 20.2538 15.3019 20.4689 14.8481 20.6415C14.5905 20.7395 14.369 20.8238 14.2875 20.9445C14.1606 21.1637 14.1947 21.33 14.2486 21.5928C14.2903 21.7959 14.3438 22.0568 14.3438 22.4444C14.3438 22.9444 13.7812 23.2778 13.1062 23.2778H5.0625C4.44375 23.2778 3.65625 22.9444 2.925 22.5556C2.25 22.2222 1.575 21.8889 0.84375 21.7222V12.8889C2.925 11.3333 5.625 8.94444 6.69375 6.05555C6.69375 6 6.69375 5.94445 6.75 5.94445L7.5375 1.77778C7.81875 1.66667 8.04375 1.66667 8.49375 1.66667C8.6625 1.66667 9.3375 2.66667 9.3375 5.83333C9.3375 7.05556 9.1125 8.44444 8.6625 10H8.4375C7.9875 10 7.59375 10.3889 7.59375 10.8333C7.59375 11.2778 7.9875 11.6667 8.4375 11.6667H16.0312C16.875 11.6667 17.6625 12.0556 17.6625 12.7222Z" transform="translate(14.5938 6)" fill="white"/>
<path d="M19.4062 12.7222C19.4062 10.9444 18 10 16.0312 10H10.35C10.7438 8.5 10.9688 7.05556 10.9688 5.83333C10.9688 1 9.61875 0 8.4375 0C7.65 0 7.0875 0.0555556 6.3 0.555556C6.075 0.666667 5.9625 0.888889 5.90625 1.11111L5.0625 5.61111C4.1625 8 1.85625 10.0556 0 11.4444V23.3333C0.61875 23.3333 1.40625 23.6667 2.1375 24.0555C3.0375 24.5 3.99375 24.9444 5.0625 24.9444H13.1062C14.7937 24.9444 16.0312 23.6111 16.0312 22.4444C16.0312 22.2222 16.0312 22 15.975 21.8333C17.0437 21.4444 17.7188 20.5556 17.7188 19.5556C17.7188 19.0556 17.6063 18.6111 17.4375 18.2778C18.0562 17.8333 18.7312 17.1111 18.7312 16.2222C18.7312 15.7778 18.5063 15.2222 18.1687 14.8333C18.9 14.2778 19.4062 13.5 19.4062 12.7222ZM17.6625 12.7222C17.6625 13.3795 17.2262 13.6706 16.8563 13.9174C16.6322 14.067 16.4324 14.2003 16.3687 14.3889C16.2897 14.6491 16.4328 14.8362 16.6073 15.0643C16.8053 15.3232 17.0437 15.635 17.0437 16.1667C17.0437 16.8158 16.5545 17.0657 16.1385 17.2782C15.878 17.4113 15.6462 17.5297 15.5813 17.7222C15.4669 18.0328 15.5705 18.2429 15.7 18.5057C15.8253 18.7601 15.975 19.0637 15.975 19.5556V19.7222C15.8673 20.2538 15.3019 20.4689 14.8481 20.6415C14.5905 20.7395 14.369 20.8238 14.2875 20.9445C14.1606 21.1637 14.1947 21.33 14.2486 21.5928C14.2903 21.7959 14.3438 22.0568 14.3438 22.4444C14.3438 22.9444 13.7812 23.2778 13.1062 23.2778H5.0625C4.44375 23.2778 3.65625 22.9444 2.925 22.5556C2.25 22.2222 1.575 21.8889 0.84375 21.7222V12.8889C2.925 11.3333 5.625 8.94444 6.69375 6.05555C6.69375 6 6.69375 5.94445 6.75 5.94445L7.5375 1.77778C7.81875 1.66667 8.04375 1.66667 8.49375 1.66667C8.6625 1.66667 9.3375 2.66667 9.3375 5.83333C9.3375 7.05556 9.1125 8.44444 8.6625 10H8.4375C7.9875 10 7.59375 10.3889 7.59375 10.8333C7.59375 11.2778 7.9875 11.6667 8.4375 11.6667H16.0312C16.875 11.6667 17.6625 12.0556 17.6625 12.7222Z" transform="translate(14.5938 6)" stroke="white"/>
<path d="M6.75 15H1.6875C0.73125 15 0 14.2778 0 13.3333V1.66667C0 0.722222 0.73125 0 1.6875 0H6.75C7.70625 0 8.4375 0.722222 8.4375 1.66667V13.3333C8.4375 14.2778 7.70625 15 6.75 15ZM1.6875 1.66667V13.3333H6.75V1.66667H1.6875Z" transform="translate(7 16)" fill="white"/>
<path d="M6.75 15H1.6875C0.73125 15 0 14.2778 0 13.3333V1.66667C0 0.722222 0.73125 0 1.6875 0H6.75C7.70625 0 8.4375 0.722222 8.4375 1.66667V13.3333C8.4375 14.2778 7.70625 15 6.75 15ZM1.6875 1.66667V13.3333H6.75V1.66667H1.6875Z" transform="translate(7 16)" stroke="white"/>
</svg>
