<svg width="158" height="19" viewBox="0 0 158 19" version="1.1" xmlns="http://www.w3.org/2000/svg" xmlns:xlink="http://www.w3.org/1999/xlink">
<g id="Canvas" fill="none">
<g id="RESTOJOB.RU">
<path d="M 122.02 19.35C 122.106 19.5407 122.115 19.6967 122.046 19.818C 121.994 19.9393 121.872 20 121.682 20L 118.484 20C 118.224 20 118.007 19.9653 117.834 19.896C 117.678 19.8093 117.556 19.6533 117.47 19.428L 114.818 13.422L 113.128 13.422L 113.128 19.428C 113.128 19.5667 113.093 19.6967 113.024 19.818C 112.972 19.9393 112.824 20 112.582 20L 109.592 20C 109.349 20 109.184 19.948 109.098 19.844C 109.028 19.74 108.994 19.6013 108.994 19.428L 108.994 3.282C 108.994 3.126 109.028 2.996 109.098 2.892C 109.184 2.77067 109.349 2.71 109.592 2.71L 115.962 2.71C 116.655 2.71 117.34 2.814 118.016 3.022C 118.709 3.23 119.324 3.55067 119.862 3.984C 120.399 4.4 120.832 4.946 121.162 5.622C 121.491 6.28067 121.656 7.06933 121.656 7.988C 121.656 8.42133 121.604 8.872 121.5 9.34C 121.413 9.79067 121.257 10.224 121.032 10.64C 120.806 11.056 120.512 11.446 120.148 11.81C 119.784 12.1567 119.342 12.4513 118.822 12.694L 122.02 19.35ZM 117.392 8.04C 117.392 7.364 117.184 6.88733 116.768 6.61C 116.369 6.33267 115.866 6.194 115.26 6.194L 113.128 6.194L 113.128 10.068L 115.208 10.068C 115.433 10.068 115.676 10.042 115.936 9.99C 116.196 9.938 116.43 9.84267 116.638 9.704C 116.863 9.56533 117.045 9.366 117.184 9.106C 117.322 8.82867 117.392 8.47333 117.392 8.04ZM 124.662 3.308C 124.662 3.13467 124.696 2.996 124.766 2.892C 124.852 2.77067 125.008 2.71 125.234 2.71L 135.556 2.71C 135.92 2.71 136.102 2.90067 136.102 3.282L 136.102 5.648C 136.102 5.804 136.058 5.934 135.972 6.038C 135.902 6.142 135.755 6.194 135.53 6.194L 128.796 6.194L 128.796 9.34L 134.672 9.34C 135.07 9.34 135.27 9.522 135.27 9.886L 135.27 12.252C 135.27 12.408 135.226 12.538 135.14 12.642C 135.07 12.746 134.914 12.798 134.672 12.798L 128.796 12.798L 128.796 16.542L 135.66 16.542C 136.041 16.542 136.232 16.7327 136.232 17.114L 136.232 19.48C 136.232 19.636 136.188 19.766 136.102 19.87C 136.032 19.9567 135.885 20 135.66 20L 125.234 20C 125.008 20 124.852 19.948 124.766 19.844C 124.696 19.74 124.662 19.61 124.662 19.454L 124.662 3.308ZM 144.516 20.234C 144.238 20.234 143.892 20.2167 143.476 20.182C 143.06 20.1647 142.618 20.1213 142.15 20.052C 141.682 20 141.205 19.922 140.72 19.818C 140.252 19.714 139.81 19.584 139.394 19.428C 138.96 19.2547 138.718 19.09 138.666 18.934C 138.614 18.778 138.614 18.5787 138.666 18.336L 138.978 16.828C 139.064 16.4813 139.168 16.2907 139.29 16.256C 139.411 16.2213 139.645 16.23 139.992 16.282C 140.304 16.3167 140.65 16.36 141.032 16.412C 141.413 16.4467 141.803 16.4813 142.202 16.516C 142.6 16.5507 142.999 16.5853 143.398 16.62C 143.796 16.6373 144.178 16.646 144.542 16.646C 145.426 16.646 146.067 16.5073 146.466 16.23C 146.882 15.9527 147.09 15.5367 147.09 14.982C 147.09 14.67 147.046 14.4187 146.96 14.228C 146.873 14.02 146.726 13.8467 146.518 13.708C 146.327 13.5693 146.076 13.4567 145.764 13.37C 145.469 13.266 145.105 13.1707 144.672 13.084C 143.926 12.928 143.19 12.746 142.462 12.538C 141.734 12.3127 141.084 12.0093 140.512 11.628C 139.94 11.2467 139.472 10.7527 139.108 10.146C 138.761 9.53933 138.588 8.768 138.588 7.832C 138.588 6.98267 138.735 6.22867 139.03 5.57C 139.324 4.91133 139.74 4.36533 140.278 3.932C 140.832 3.48133 141.5 3.14333 142.28 2.918C 143.06 2.67533 143.926 2.554 144.88 2.554C 145.122 2.554 145.434 2.56267 145.816 2.58C 146.214 2.58 146.639 2.606 147.09 2.658C 147.558 2.71 148.026 2.788 148.494 2.892C 148.979 2.996 149.43 3.13467 149.846 3.308C 150.279 3.464 150.522 3.62867 150.574 3.802C 150.626 3.958 150.634 4.15733 150.6 4.4L 150.236 5.934C 150.201 6.10733 150.158 6.23733 150.106 6.324C 150.054 6.39333 149.984 6.44533 149.898 6.48C 149.811 6.49733 149.698 6.506 149.56 6.506C 149.438 6.48867 149.291 6.47133 149.118 6.454C 148.528 6.36733 147.922 6.298 147.298 6.246C 146.691 6.194 145.989 6.168 145.192 6.168C 144.429 6.168 143.857 6.28933 143.476 6.532C 143.112 6.77467 142.93 7.17333 142.93 7.728C 142.93 8.00533 142.964 8.23067 143.034 8.404C 143.12 8.57733 143.25 8.72467 143.424 8.846C 143.614 8.96733 143.857 9.07133 144.152 9.158C 144.446 9.22733 144.81 9.30533 145.244 9.392C 145.989 9.548 146.726 9.73 147.454 9.938C 148.182 10.146 148.832 10.4407 149.404 10.822C 149.976 11.2033 150.435 11.7147 150.782 12.356C 151.146 12.98 151.328 13.8033 151.328 14.826C 151.328 15.8487 151.137 16.7067 150.756 17.4C 150.374 18.0933 149.863 18.648 149.222 19.064C 148.598 19.48 147.87 19.7833 147.038 19.974C 146.223 20.1473 145.382 20.234 144.516 20.234ZM 165.733 5.648C 165.733 5.804 165.69 5.934 165.603 6.038C 165.534 6.142 165.386 6.194 165.161 6.194L 161.313 6.194L 161.313 19.428C 161.313 19.5667 161.278 19.6967 161.209 19.818C 161.157 19.9393 161.01 20 160.767 20L 157.777 20C 157.552 20 157.396 19.948 157.309 19.844C 157.24 19.74 157.205 19.6013 157.205 19.428L 157.205 6.194L 153.383 6.194C 153.14 6.194 152.984 6.142 152.915 6.038C 152.846 5.934 152.811 5.804 152.811 5.648L 152.811 3.282C 152.811 3.10867 152.846 2.97 152.915 2.866C 152.984 2.762 153.14 2.71 153.383 2.71L 165.161 2.71C 165.542 2.71 165.733 2.90067 165.733 3.282L 165.733 5.648ZM 181.956 11.134C 181.956 12.122 181.878 13.1533 181.722 14.228C 181.583 15.2853 181.254 16.2647 180.734 17.166C 180.214 18.05 179.451 18.7867 178.446 19.376C 177.458 19.948 176.114 20.234 174.416 20.234C 173.289 20.234 172.318 20.104 171.504 19.844C 170.706 19.5667 170.03 19.2027 169.476 18.752C 168.938 18.3013 168.505 17.7727 168.176 17.166C 167.864 16.5593 167.621 15.918 167.448 15.242C 167.274 14.566 167.162 13.8813 167.11 13.188C 167.058 12.4773 167.032 11.7927 167.032 11.134C 167.032 10.6313 167.058 10.068 167.11 9.444C 167.179 8.80267 167.3 8.17 167.474 7.546C 167.664 6.90467 167.924 6.28067 168.254 5.674C 168.583 5.06733 169.016 4.53 169.554 4.062C 170.108 3.594 170.784 3.22133 171.582 2.944C 172.379 2.64933 173.332 2.502 174.442 2.502C 176.071 2.502 177.371 2.762 178.342 3.282C 179.33 3.78467 180.092 4.452 180.63 5.284C 181.167 6.09867 181.522 7.026 181.696 8.066C 181.869 9.08867 181.956 10.1113 181.956 11.134ZM 177.718 11.42C 177.718 9.56533 177.484 8.21333 177.016 7.364C 176.565 6.49733 175.716 6.064 174.468 6.064C 173.306 6.064 172.5 6.506 172.05 7.39C 171.616 8.25667 171.4 9.6 171.4 11.42C 171.4 13.1707 171.608 14.488 172.024 15.372C 172.457 16.2387 173.272 16.672 174.468 16.672C 175.698 16.672 176.548 16.2473 177.016 15.398C 177.484 14.5313 177.718 13.2053 177.718 11.42ZM 188.824 3.308C 188.824 3.13467 188.859 2.996 188.928 2.892C 189.015 2.77067 189.171 2.71 189.396 2.71L 192.386 2.71C 192.629 2.71 192.785 2.77933 192.854 2.918C 192.924 3.03933 192.958 3.16933 192.958 3.308C 192.958 5.82133 192.958 8.08333 192.958 10.094C 192.958 12.0873 192.95 13.8553 192.932 15.398C 192.932 16.9233 192.473 18.1107 191.554 18.96C 190.653 19.8093 189.223 20.234 187.264 20.234C 187.056 20.234 186.805 20.2253 186.51 20.208C 186.233 20.1907 185.938 20.156 185.626 20.104C 185.314 20.0693 184.994 20.026 184.664 19.974C 184.352 19.9047 184.058 19.818 183.78 19.714C 183.33 19.558 183.044 19.4107 182.922 19.272C 182.818 19.1333 182.81 18.8993 182.896 18.57L 183.286 16.88C 183.373 16.62 183.451 16.4727 183.52 16.438C 183.59 16.386 183.746 16.3773 183.988 16.412C 184.439 16.464 184.881 16.5073 185.314 16.542C 185.765 16.5767 186.181 16.594 186.562 16.594C 187.03 16.594 187.412 16.5507 187.706 16.464C 188.001 16.36 188.226 16.2213 188.382 16.048C 188.556 15.8747 188.668 15.6667 188.72 15.424C 188.79 15.164 188.824 14.8867 188.824 14.592L 188.824 3.308ZM 211.384 11.134C 211.384 12.122 211.306 13.1533 211.15 14.228C 211.011 15.2853 210.682 16.2647 210.162 17.166C 209.642 18.05 208.879 18.7867 207.874 19.376C 206.886 19.948 205.542 20.234 203.844 20.234C 202.717 20.234 201.746 20.104 200.932 19.844C 200.134 19.5667 199.458 19.2027 198.904 18.752C 198.366 18.3013 197.933 17.7727 197.604 17.166C 197.292 16.5593 197.049 15.918 196.876 15.242C 196.702 14.566 196.59 13.8813 196.538 13.188C 196.486 12.4773 196.46 11.7927 196.46 11.134C 196.46 10.6313 196.486 10.068 196.538 9.444C 196.607 8.80267 196.728 8.17 196.902 7.546C 197.092 6.90467 197.352 6.28067 197.682 5.674C 198.011 5.06733 198.444 4.53 198.982 4.062C 199.536 3.594 200.212 3.22133 201.01 2.944C 201.807 2.64933 202.76 2.502 203.87 2.502C 205.499 2.502 206.799 2.762 207.77 3.282C 208.758 3.78467 209.52 4.452 210.058 5.284C 210.595 6.09867 210.95 7.026 211.124 8.066C 211.297 9.08867 211.384 10.1113 211.384 11.134ZM 207.146 11.42C 207.146 9.56533 206.912 8.21333 206.444 7.364C 205.993 6.49733 205.144 6.064 203.896 6.064C 202.734 6.064 201.928 6.506 201.478 7.39C 201.044 8.25667 200.828 9.6 200.828 11.42C 200.828 13.1707 201.036 14.488 201.452 15.372C 201.885 16.2387 202.7 16.672 203.896 16.672C 205.126 16.672 205.976 16.2473 206.444 15.398C 206.912 14.5313 207.146 13.2053 207.146 11.42ZM 227.697 14.878C 227.697 15.6927 227.55 16.4207 227.255 17.062C 226.961 17.686 226.562 18.2233 226.059 18.674C 225.557 19.1073 224.976 19.4367 224.317 19.662C 223.676 19.8873 223 20 222.289 20L 215.243 20C 215.001 20 214.836 19.948 214.749 19.844C 214.68 19.74 214.645 19.6013 214.645 19.428L 214.645 3.308C 214.645 3.13467 214.68 2.996 214.749 2.892C 214.836 2.788 214.992 2.736 215.217 2.736L 221.821 2.71C 223.607 2.71 224.95 3.14333 225.851 4.01C 226.77 4.85933 227.229 6.02933 227.229 7.52C 227.229 7.728 227.203 7.97933 227.151 8.274C 227.099 8.56867 227.004 8.872 226.865 9.184C 226.744 9.496 226.553 9.79933 226.293 10.094C 226.051 10.3887 225.739 10.6313 225.357 10.822L 225.383 10.926C 225.886 11.1167 226.285 11.3767 226.579 11.706C 226.891 12.0353 227.125 12.3907 227.281 12.772C 227.455 13.1533 227.567 13.5347 227.619 13.916C 227.671 14.28 227.697 14.6007 227.697 14.878ZM 223.459 14.67C 223.459 14.1327 223.303 13.6733 222.991 13.292C 222.679 12.9107 222.168 12.72 221.457 12.72L 218.779 12.72L 218.779 16.542L 221.457 16.542C 222.22 16.542 222.74 16.36 223.017 15.996C 223.312 15.632 223.459 15.19 223.459 14.67ZM 222.991 7.806C 222.991 7.338 222.844 6.948 222.549 6.636C 222.272 6.324 221.804 6.168 221.145 6.168L 218.779 6.168L 218.779 9.392L 221.275 9.392C 221.813 9.392 222.229 9.24467 222.523 8.95C 222.835 8.65533 222.991 8.274 222.991 7.806ZM 234.096 18.284C 234.096 18.5267 234.07 18.7693 234.018 19.012C 233.966 19.2547 233.862 19.4713 233.706 19.662C 233.568 19.8353 233.36 19.974 233.082 20.078C 232.805 20.1993 232.45 20.26 232.016 20.26C 231.566 20.26 231.202 20.1993 230.924 20.078C 230.647 19.974 230.43 19.8267 230.274 19.636C 230.136 19.4453 230.04 19.2373 229.988 19.012C 229.954 18.7693 229.936 18.5267 229.936 18.284C 229.936 17.7293 230.075 17.27 230.352 16.906C 230.63 16.5247 231.184 16.334 232.016 16.334C 232.45 16.334 232.796 16.386 233.056 16.49C 233.334 16.5767 233.55 16.7067 233.706 16.88C 233.862 17.0533 233.966 17.2613 234.018 17.504C 234.07 17.7467 234.096 18.0067 234.096 18.284ZM 249.76 19.35C 249.847 19.5407 249.855 19.6967 249.786 19.818C 249.734 19.9393 249.613 20 249.422 20L 246.224 20C 245.964 20 245.747 19.9653 245.574 19.896C 245.418 19.8093 245.297 19.6533 245.21 19.428L 242.558 13.422L 240.868 13.422L 240.868 19.428C 240.868 19.5667 240.833 19.6967 240.764 19.818C 240.712 19.9393 240.565 20 240.322 20L 237.332 20C 237.089 20 236.925 19.948 236.838 19.844C 236.769 19.74 236.734 19.6013 236.734 19.428L 236.734 3.282C 236.734 3.126 236.769 2.996 236.838 2.892C 236.925 2.77067 237.089 2.71 237.332 2.71L 243.702 2.71C 244.395 2.71 245.08 2.814 245.756 3.022C 246.449 3.23 247.065 3.55067 247.602 3.984C 248.139 4.4 248.573 4.946 248.902 5.622C 249.231 6.28067 249.396 7.06933 249.396 7.988C 249.396 8.42133 249.344 8.872 249.24 9.34C 249.153 9.79067 248.997 10.224 248.772 10.64C 248.547 11.056 248.252 11.446 247.888 11.81C 247.524 12.1567 247.082 12.4513 246.562 12.694L 249.76 19.35ZM 245.132 8.04C 245.132 7.364 244.924 6.88733 244.508 6.61C 244.109 6.33267 243.607 6.194 243 6.194L 240.868 6.194L 240.868 10.068L 242.948 10.068C 243.173 10.068 243.416 10.042 243.676 9.99C 243.936 9.938 244.17 9.84267 244.378 9.704C 244.603 9.56533 244.785 9.366 244.924 9.106C 245.063 8.82867 245.132 8.47333 245.132 8.04ZM 259.136 16.672C 260.02 16.672 260.696 16.412 261.164 15.892C 261.632 15.372 261.866 14.566 261.866 13.474L 261.84 3.308C 261.84 3.13467 261.883 2.996 261.97 2.892C 262.056 2.77067 262.212 2.71 262.438 2.71L 265.428 2.71C 265.67 2.71 265.818 2.77933 265.87 2.918C 265.939 3.03933 265.974 3.16933 265.974 3.308L 265.948 13.578C 265.948 14.0807 265.913 14.592 265.844 15.112C 265.792 15.6147 265.662 16.1347 265.454 16.672C 265.194 17.3133 264.838 17.8593 264.388 18.31C 263.954 18.7607 263.452 19.1333 262.88 19.428C 262.325 19.7053 261.727 19.9047 261.086 20.026C 260.444 20.1647 259.794 20.234 259.136 20.234C 258.044 20.2513 257.073 20.104 256.224 19.792C 255.392 19.4627 254.69 19.0033 254.118 18.414C 253.546 17.8247 253.112 17.1227 252.818 16.308C 252.523 15.476 252.376 14.566 252.376 13.578L 252.376 3.308C 252.376 3.13467 252.41 2.996 252.48 2.892C 252.566 2.77067 252.722 2.71 252.948 2.71L 255.938 2.71C 256.18 2.71 256.328 2.77933 256.38 2.918C 256.449 3.03933 256.484 3.16933 256.484 3.308L 256.484 13.474C 256.484 15.606 257.368 16.672 259.136 16.672Z" transform="translate(-108 -2)" fill="#F43232"/>
</g>
</g>
</svg>

