<svg width="34" height="34" viewBox="0 0 34 34" fill="none" xmlns="http://www.w3.org/2000/svg">
<path d="M31.1667 0H2.83333C1.275 0 0 1.275 0 2.83333V31.1667C0 32.725 1.275 34 2.83333 34H31.1667C32.725 34 34 32.725 34 31.1667V2.83333C34 1.275 32.725 0 31.1667 0Z" fill="#54769B"/>
<path d="M11.355 12.75C12.0633 12.75 12.0633 11.7583 12.0633 11.3333C12.0633 10.625 12.7716 9.91667 13.48 9.91667C14.1883 9.91667 15.3925 11.1208 16.3133 12.0417C17.0216 12.75 17.0216 12.75 17.73 12.75C18.4383 12.75 19.855 12.75 19.855 12.75C19.855 12.75 21.2716 12.6792 21.2716 11.3333C21.2716 10.9083 20.7758 10.1292 19.1466 8.5C17.73 7.08333 17.0216 7.79167 19.1466 4.95833C20.4216 3.1875 21.4133 1.62917 21.2716 1.20417C21.13 0.779167 17.5175 0.0708333 17.0216 0.708333C15.605 2.83333 15.3216 3.32917 14.8966 4.25C14.1883 5.66667 14.1175 6.375 13.48 6.375C12.8425 6.375 12.7716 5.02917 12.7716 4.25C12.7716 1.9125 13.1258 0.283333 12.0633 0C12.0633 0 10.6466 0 9.9383 0C8.80497 0 7.8133 0.708333 7.8133 0.708333C7.8133 0.708333 6.9633 1.41667 7.10497 1.41667C7.31747 1.41667 8.52163 1.13333 8.52163 2.125C8.52163 2.83333 8.52163 3.54167 8.52163 3.54167C8.52163 3.54167 8.52163 6.375 7.8133 6.375C7.10497 6.375 5.6883 3.54167 4.27163 1.41667C3.70497 0.566667 3.5633 0.708333 2.85497 0.708333C2.0758 0.708333 1.4383 0.708333 0.729967 0.708333C0.0216342 0.708333 -0.0491992 1.13333 0.0216342 1.41667C1.4383 4.95833 2.42997 7.15417 5.12163 9.9875C7.6008 12.5375 9.22997 12.6792 10.6466 12.75C11.0008 12.75 10.6466 12.75 11.355 12.75Z" transform="translate(6.35303 10.625)" fill="white"/>
</svg>
