<svg width="35" height="34" viewBox="0 0 35 34" fill="none" xmlns="http://www.w3.org/2000/svg">
<path d="M31.1667 0H2.83333C1.275 0 0 1.275 0 2.83333V31.1667C0 32.725 1.275 34 2.83333 34H31.1667C32.725 34 34 32.725 34 31.1667V2.83333C34 1.275 32.725 0 31.1667 0Z" transform="translate(0.987305)" fill="#3A5BA0"/>
<path d="M10.625 11.3333L11.3333 7.79167H7.79167V4.95833C7.79167 3.89583 8.35833 3.54167 9.91667 3.54167H11.3333V0C11.3333 0 9.91667 0 8.5 0C5.59583 0 3.54167 1.7 3.54167 4.95833V7.79167H0V11.3333H3.54167V21.25H7.79167V11.3333H10.625Z" transform="translate(12.3208 6.375)" fill="white"/>
</svg>
