<svg width="35" height="34" viewBox="0 0 35 34" fill="none" xmlns="http://www.w3.org/2000/svg">
<path d="M31.1667 0H2.83333C1.275 0 0 1.275 0 2.83333V31.1667C0 32.725 1.275 34 2.83333 34H31.1667C32.725 34 34 32.725 34 31.1667V2.83333C34 1.275 32.725 0 31.1667 0Z" transform="translate(0.974609)" fill="#527FA3"/>
<path d="M18.4167 0H2.47917C1.13333 0 0 1.13333 0 2.47917V18.7708C0 20.1167 1.13333 21.25 2.47917 21.25H18.7708C20.1167 21.1792 21.25 20.1167 21.25 18.7708V2.47917C21.25 1.13333 19.7625 0.0708333 18.4167 0ZM10.625 6.72917C12.75 6.72917 14.5208 8.5 14.5208 10.625C14.5208 12.75 12.75 14.5208 10.625 14.5208C8.5 14.5208 6.72917 12.75 6.72917 10.625C6.72917 8.5 8.5 6.72917 10.625 6.72917ZM18.4167 17C18.4167 17.7792 17.7792 18.4167 17 18.4167H10.625H4.25C3.47083 18.4167 2.83333 17.7792 2.83333 17V8.85417H4.53333C4.32083 9.42083 4.25 9.9875 4.25 10.625C4.25 14.1667 7.08333 17 10.625 17C14.1667 17 17 14.1667 17 10.625C17 9.9875 16.9292 9.42083 16.7167 8.85417H18.4167V17ZM18.4167 3.54167V5.66667C18.4167 6.02083 18.1333 6.375 17.7083 6.375H15.5833C15.2292 6.375 14.875 6.09167 14.875 5.66667V3.54167C14.875 3.11667 15.1583 2.83333 15.5833 2.83333H17.7083C18.1333 2.83333 18.4167 3.1875 18.4167 3.54167Z" transform="translate(7.34961 6.375)" fill="white"/>
</svg>
