<svg width="205" height="25" viewBox="0 0 205 25" fill="none" xmlns="http://www.w3.org/2000/svg">
<path d="M19.81 25.125C19.9267 25.3817 19.9383 25.5917 19.845 25.755C19.775 25.9183 19.6117 26 19.355 26H15.05C14.7 26 14.4083 25.9533 14.175 25.86C13.965 25.7433 13.8017 25.5333 13.685 25.23L10.115 17.145H7.84V25.23C7.84 25.4167 7.79333 25.5917 7.7 25.755C7.63 25.9183 7.43167 26 7.105 26H3.08C2.75333 26 2.53167 25.93 2.415 25.79C2.32167 25.65 2.275 25.4633 2.275 25.23V3.495C2.275 3.285 2.32167 3.11 2.415 2.97C2.53167 2.80667 2.75333 2.725 3.08 2.725H11.655C12.5883 2.725 13.51 2.865 14.42 3.145C15.3533 3.425 16.1817 3.85667 16.905 4.44C17.6283 5 18.2117 5.735 18.655 6.645C19.0983 7.53167 19.32 8.59333 19.32 9.83C19.32 10.4133 19.25 11.02 19.11 11.65C18.9933 12.2567 18.7833 12.84 18.48 13.4C18.1767 13.96 17.78 14.485 17.29 14.975C16.8 15.4417 16.205 15.8383 15.505 16.165L19.81 25.125ZM13.58 9.9C13.58 8.99 13.3 8.34833 12.74 7.975C12.2033 7.60167 11.5267 7.415 10.71 7.415H7.84V12.63H10.64C10.9433 12.63 11.27 12.595 11.62 12.525C11.97 12.455 12.285 12.3267 12.565 12.14C12.8683 11.9533 13.1133 11.685 13.3 11.335C13.4867 10.9617 13.58 10.4833 13.58 9.9ZM22.6663 3.53C22.6663 3.29667 22.713 3.11 22.8063 2.97C22.923 2.80667 23.133 2.725 23.4363 2.725H37.3313C37.8213 2.725 38.0663 2.98167 38.0663 3.495V6.68C38.0663 6.89 38.008 7.065 37.8913 7.205C37.798 7.345 37.5997 7.415 37.2963 7.415H28.2313V11.65H36.1413C36.678 11.65 36.9463 11.895 36.9463 12.385V15.57C36.9463 15.78 36.888 15.955 36.7713 16.095C36.678 16.235 36.468 16.305 36.1413 16.305H28.2313V21.345H37.4713C37.9847 21.345 38.2413 21.6017 38.2413 22.115V25.3C38.2413 25.51 38.183 25.685 38.0663 25.825C37.973 25.9417 37.7747 26 37.4713 26H23.4363C23.133 26 22.923 25.93 22.8063 25.79C22.713 25.65 22.6663 25.475 22.6663 25.265V3.53ZM48.6929 26.315C48.3196 26.315 47.8529 26.2917 47.2929 26.245C46.7329 26.2217 46.1379 26.1633 45.5079 26.07C44.8779 26 44.2363 25.895 43.5829 25.755C42.9529 25.615 42.3579 25.44 41.7979 25.23C41.2146 24.9967 40.8879 24.775 40.8179 24.565C40.7479 24.355 40.7479 24.0867 40.8179 23.76L41.2379 21.73C41.3546 21.2633 41.4946 21.0067 41.6579 20.96C41.8213 20.9133 42.1363 20.925 42.6029 20.995C43.0229 21.0417 43.4896 21.1 44.0029 21.17C44.5163 21.2167 45.0413 21.2633 45.5779 21.31C46.1146 21.3567 46.6513 21.4033 47.1879 21.45C47.7246 21.4733 48.2379 21.485 48.7279 21.485C49.9179 21.485 50.7813 21.2983 51.3179 20.925C51.8779 20.5517 52.1579 19.9917 52.1579 19.245C52.1579 18.825 52.0996 18.4867 51.9829 18.23C51.8663 17.95 51.6679 17.7167 51.3879 17.53C51.1313 17.3433 50.7929 17.1917 50.3729 17.075C49.9763 16.935 49.4863 16.8067 48.9029 16.69C47.8996 16.48 46.9079 16.235 45.9279 15.955C44.9479 15.6517 44.0729 15.2433 43.3029 14.73C42.5329 14.2167 41.9029 13.5517 41.4129 12.735C40.9463 11.9183 40.7129 10.88 40.7129 9.62C40.7129 8.47667 40.9113 7.46167 41.3079 6.575C41.7046 5.68833 42.2646 4.95333 42.9879 4.37C43.7346 3.76333 44.6329 3.30833 45.6829 3.005C46.7329 2.67833 47.8996 2.515 49.1829 2.515C49.5096 2.515 49.9296 2.52667 50.4429 2.55C50.9796 2.55 51.5513 2.585 52.1579 2.655C52.7879 2.725 53.4179 2.83 54.0479 2.97C54.7013 3.11 55.3079 3.29667 55.8679 3.53C56.4513 3.74 56.7779 3.96167 56.8479 4.195C56.9179 4.405 56.9296 4.67333 56.8829 5L56.3929 7.065C56.3463 7.29833 56.2879 7.47333 56.2179 7.59C56.1479 7.68333 56.0546 7.75333 55.9379 7.8C55.8213 7.82333 55.6696 7.835 55.4829 7.835C55.3196 7.81167 55.1213 7.78833 54.8879 7.765C54.0946 7.64833 53.2779 7.555 52.4379 7.485C51.6213 7.415 50.6763 7.38 49.6029 7.38C48.5763 7.38 47.8063 7.54333 47.2929 7.87C46.8029 8.19667 46.5579 8.73333 46.5579 9.48C46.5579 9.85333 46.6046 10.1567 46.6979 10.39C46.8146 10.6233 46.9896 10.8217 47.2229 10.985C47.4796 11.1483 47.8063 11.2883 48.2029 11.405C48.5996 11.4983 49.0896 11.6033 49.6729 11.72C50.6763 11.93 51.6679 12.175 52.6479 12.455C53.6279 12.735 54.5029 13.1317 55.2729 13.645C56.0429 14.1583 56.6613 14.8467 57.1279 15.71C57.6179 16.55 57.8629 17.6583 57.8629 19.035C57.8629 20.4117 57.6063 21.5667 57.0929 22.5C56.5796 23.4333 55.8913 24.18 55.0279 24.74C54.1879 25.3 53.2079 25.7083 52.0879 25.965C50.9913 26.1983 49.8596 26.315 48.6929 26.315ZM76.5548 6.68C76.5548 6.89 76.4965 7.065 76.3798 7.205C76.2865 7.345 76.0882 7.415 75.7848 7.415H70.6048V25.23C70.6048 25.4167 70.5582 25.5917 70.4648 25.755C70.3948 25.9183 70.1965 26 69.8698 26H65.8448C65.5415 26 65.3315 25.93 65.2148 25.79C65.1215 25.65 65.0748 25.4633 65.0748 25.23V7.415H59.9298C59.6032 7.415 59.3932 7.345 59.2998 7.205C59.2065 7.065 59.1598 6.89 59.1598 6.68V3.495C59.1598 3.26167 59.2065 3.075 59.2998 2.935C59.3932 2.795 59.6032 2.725 59.9298 2.725H75.7848C76.2982 2.725 76.5548 2.98167 76.5548 3.495V6.68ZM97.6932 14.065C97.6932 15.395 97.5882 16.7833 97.3782 18.23C97.1915 19.6533 96.7482 20.9717 96.0482 22.185C95.3482 23.375 94.3215 24.3667 92.9682 25.16C91.6382 25.93 89.8299 26.315 87.5432 26.315C86.0265 26.315 84.7199 26.14 83.6232 25.79C82.5499 25.4167 81.6399 24.9267 80.8932 24.32C80.1699 23.7133 79.5865 23.0017 79.1432 22.185C78.7232 21.3683 78.3965 20.505 78.1632 19.595C77.9299 18.685 77.7782 17.7633 77.7082 16.83C77.6382 15.8733 77.6032 14.9517 77.6032 14.065C77.6032 13.3883 77.6382 12.63 77.7082 11.79C77.8015 10.9267 77.9649 10.075 78.1982 9.235C78.4549 8.37167 78.8049 7.53167 79.2482 6.715C79.6915 5.89833 80.2749 5.175 80.9982 4.545C81.7449 3.915 82.6549 3.41333 83.7282 3.04C84.8015 2.64333 86.0849 2.445 87.5782 2.445C89.7715 2.445 91.5215 2.795 92.8282 3.495C94.1582 4.17167 95.1849 5.07 95.9082 6.19C96.6315 7.28667 97.1099 8.535 97.3432 9.935C97.5765 11.3117 97.6932 12.6883 97.6932 14.065ZM91.9882 14.45C91.9882 11.9533 91.6732 10.1333 91.0432 8.99C90.4365 7.82333 89.2932 7.24 87.6132 7.24C86.0499 7.24 84.9649 7.835 84.3582 9.025C83.7749 10.1917 83.4832 12 83.4832 14.45C83.4832 16.8067 83.7632 18.58 84.3232 19.77C84.9065 20.9367 86.0032 21.52 87.6132 21.52C89.2699 21.52 90.4132 20.9483 91.0432 19.805C91.6732 18.6383 91.9882 16.8533 91.9882 14.45ZM106.239 3.53C106.239 3.29667 106.286 3.11 106.379 2.97C106.496 2.80667 106.706 2.725 107.009 2.725H111.034C111.361 2.725 111.571 2.81833 111.664 3.005C111.758 3.16833 111.804 3.34333 111.804 3.53C111.804 6.91333 111.804 9.95833 111.804 12.665C111.804 15.3483 111.793 17.7283 111.769 19.805C111.769 21.8583 111.151 23.4567 109.914 24.6C108.701 25.7433 106.776 26.315 104.139 26.315C103.859 26.315 103.521 26.3033 103.124 26.28C102.751 26.2567 102.354 26.21 101.934 26.14C101.514 26.0933 101.083 26.035 100.639 25.965C100.219 25.8717 99.8228 25.755 99.4495 25.615C98.8428 25.405 98.4578 25.2067 98.2945 25.02C98.1545 24.8333 98.1428 24.5183 98.2595 24.075L98.7845 21.8C98.9012 21.45 99.0062 21.2517 99.0995 21.205C99.1928 21.135 99.4028 21.1233 99.7295 21.17C100.336 21.24 100.931 21.2983 101.514 21.345C102.121 21.3917 102.681 21.415 103.194 21.415C103.824 21.415 104.338 21.3567 104.734 21.24C105.131 21.1 105.434 20.9133 105.644 20.68C105.878 20.4467 106.029 20.1667 106.099 19.84C106.193 19.49 106.239 19.1167 106.239 18.72V3.53ZM135.907 14.065C135.907 15.395 135.802 16.7833 135.592 18.23C135.406 19.6533 134.962 20.9717 134.262 22.185C133.562 23.375 132.536 24.3667 131.182 25.16C129.852 25.93 128.044 26.315 125.757 26.315C124.241 26.315 122.934 26.14 121.837 25.79C120.764 25.4167 119.854 24.9267 119.107 24.32C118.384 23.7133 117.801 23.0017 117.357 22.185C116.937 21.3683 116.611 20.505 116.377 19.595C116.144 18.685 115.992 17.7633 115.922 16.83C115.852 15.8733 115.817 14.9517 115.817 14.065C115.817 13.3883 115.852 12.63 115.922 11.79C116.016 10.9267 116.179 10.075 116.412 9.235C116.669 8.37167 117.019 7.53167 117.462 6.715C117.906 5.89833 118.489 5.175 119.212 4.545C119.959 3.915 120.869 3.41333 121.942 3.04C123.016 2.64333 124.299 2.445 125.792 2.445C127.986 2.445 129.736 2.795 131.042 3.495C132.372 4.17167 133.399 5.07 134.122 6.19C134.846 7.28667 135.324 8.535 135.557 9.935C135.791 11.3117 135.907 12.6883 135.907 14.065ZM130.202 14.45C130.202 11.9533 129.887 10.1333 129.257 8.99C128.651 7.82333 127.507 7.24 125.827 7.24C124.264 7.24 123.179 7.835 122.572 9.025C121.989 10.1917 121.697 12 121.697 14.45C121.697 16.8067 121.977 18.58 122.537 19.77C123.121 20.9367 124.217 21.52 125.827 21.52C127.484 21.52 128.627 20.9483 129.257 19.805C129.887 18.6383 130.202 16.8533 130.202 14.45ZM157.168 19.105C157.168 20.2017 156.97 21.1817 156.573 22.045C156.177 22.885 155.64 23.6083 154.963 24.215C154.287 24.7983 153.505 25.2417 152.618 25.545C151.755 25.8483 150.845 26 149.888 26H140.403C140.077 26 139.855 25.93 139.738 25.79C139.645 25.65 139.598 25.4633 139.598 25.23V3.53C139.598 3.29667 139.645 3.11 139.738 2.97C139.855 2.83 140.065 2.76 140.368 2.76L149.258 2.725C151.662 2.725 153.47 3.30833 154.683 4.475C155.92 5.61833 156.538 7.19333 156.538 9.2C156.538 9.48 156.503 9.81833 156.433 10.215C156.363 10.6117 156.235 11.02 156.048 11.44C155.885 11.86 155.628 12.2683 155.278 12.665C154.952 13.0617 154.532 13.3883 154.018 13.645L154.053 13.785C154.73 14.0417 155.267 14.3917 155.663 14.835C156.083 15.2783 156.398 15.7567 156.608 16.27C156.842 16.7833 156.993 17.2967 157.063 17.81C157.133 18.3 157.168 18.7317 157.168 19.105ZM151.463 18.825C151.463 18.1017 151.253 17.4833 150.833 16.97C150.413 16.4567 149.725 16.2 148.768 16.2H145.163V21.345H148.768C149.795 21.345 150.495 21.1 150.868 20.61C151.265 20.12 151.463 19.525 151.463 18.825ZM150.833 9.585C150.833 8.955 150.635 8.43 150.238 8.01C149.865 7.59 149.235 7.38 148.348 7.38H145.163V11.72H148.523C149.247 11.72 149.807 11.5217 150.203 11.125C150.623 10.7283 150.833 10.215 150.833 9.585ZM165.082 23.69C165.082 24.0167 165.047 24.3433 164.977 24.67C164.907 24.9967 164.767 25.2883 164.557 25.545C164.371 25.7783 164.091 25.965 163.717 26.105C163.344 26.2683 162.866 26.35 162.282 26.35C161.676 26.35 161.186 26.2683 160.812 26.105C160.439 25.965 160.147 25.7667 159.937 25.51C159.751 25.2533 159.622 24.9733 159.552 24.67C159.506 24.3433 159.482 24.0167 159.482 23.69C159.482 22.9433 159.669 22.325 160.042 21.835C160.416 21.3217 161.162 21.065 162.282 21.065C162.866 21.065 163.332 21.135 163.682 21.275C164.056 21.3917 164.347 21.5667 164.557 21.8C164.767 22.0333 164.907 22.3133 164.977 22.64C165.047 22.9667 165.082 23.3167 165.082 23.69ZM185.468 25.125C185.585 25.3817 185.596 25.5917 185.503 25.755C185.433 25.9183 185.27 26 185.013 26H180.708C180.358 26 180.066 25.9533 179.833 25.86C179.623 25.7433 179.46 25.5333 179.343 25.23L175.773 17.145H173.498V25.23C173.498 25.4167 173.451 25.5917 173.358 25.755C173.288 25.9183 173.09 26 172.763 26H168.738C168.411 26 168.19 25.93 168.073 25.79C167.98 25.65 167.933 25.4633 167.933 25.23V3.495C167.933 3.285 167.98 3.11 168.073 2.97C168.19 2.80667 168.411 2.725 168.738 2.725H177.313C178.246 2.725 179.168 2.865 180.078 3.145C181.011 3.425 181.84 3.85667 182.563 4.44C183.286 5 183.87 5.735 184.313 6.645C184.756 7.53167 184.978 8.59333 184.978 9.83C184.978 10.4133 184.908 11.02 184.768 11.65C184.651 12.2567 184.441 12.84 184.138 13.4C183.835 13.96 183.438 14.485 182.948 14.975C182.458 15.4417 181.863 15.8383 181.163 16.165L185.468 25.125ZM179.238 9.9C179.238 8.99 178.958 8.34833 178.398 7.975C177.861 7.60167 177.185 7.415 176.368 7.415H173.498V12.63H176.298C176.601 12.63 176.928 12.595 177.278 12.525C177.628 12.455 177.943 12.3267 178.223 12.14C178.526 11.9533 178.771 11.685 178.958 11.335C179.145 10.9617 179.238 10.4833 179.238 9.9ZM197.389 21.52C198.579 21.52 199.489 21.17 200.119 20.47C200.749 19.77 201.064 18.685 201.064 17.215L201.029 3.53C201.029 3.29667 201.088 3.11 201.204 2.97C201.321 2.80667 201.531 2.725 201.834 2.725H205.859C206.186 2.725 206.384 2.81833 206.454 3.005C206.548 3.16833 206.594 3.34333 206.594 3.53L206.559 17.355C206.559 18.0317 206.513 18.72 206.419 19.42C206.349 20.0967 206.174 20.7967 205.894 21.52C205.544 22.3833 205.066 23.1183 204.459 23.725C203.876 24.3317 203.199 24.8333 202.429 25.23C201.683 25.6033 200.878 25.8717 200.014 26.035C199.151 26.2217 198.276 26.315 197.389 26.315C195.919 26.3383 194.613 26.14 193.469 25.72C192.349 25.2767 191.404 24.6583 190.634 23.865C189.864 23.0717 189.281 22.1267 188.884 21.03C188.488 19.91 188.289 18.685 188.289 17.355V3.53C188.289 3.29667 188.336 3.11 188.429 2.97C188.546 2.80667 188.756 2.725 189.059 2.725H193.084C193.411 2.725 193.609 2.81833 193.679 3.005C193.773 3.16833 193.819 3.34333 193.819 3.53V17.215C193.819 20.085 195.009 21.52 197.389 21.52Z" transform="translate(-2 -2)" fill="white"/>
</svg>
