<svg width="35" height="23" viewBox="0 0 35 23" fill="none" xmlns="http://www.w3.org/2000/svg">
<path d="M18.1406 17.7949C17.2656 17.4835 15.8359 17.3877 15.2109 17.1402C14.7734 16.9646 14.0781 16.781 13.8594 16.5016C13.6328 16.2301 13.6328 14.2582 13.6328 14.2582C13.6328 14.2582 14.1797 13.7393 14.4062 13.1565C14.6328 12.5738 14.7813 10.9931 14.7813 10.9931C14.7813 10.9931 14.8281 11.009 14.8984 11.009C15.0625 11.009 15.3594 10.8973 15.5 10.1628C15.6719 9.26067 16 8.78966 15.9141 8.12704C15.8516 7.67997 15.6641 7.60812 15.5547 7.60812C15.5 7.60812 15.4609 7.62409 15.4609 7.62409C15.4609 7.62409 15.9062 6.95349 15.9062 4.67025C15.9062 2.32315 14.1328 0.00798346 10.8594 1.21816e-07C7.57812 0.00798346 5.8125 2.32315 5.8125 4.67025C5.8125 6.9455 6.25781 7.62409 6.25781 7.62409C6.25781 7.62409 6.21875 7.60812 6.16406 7.60812C6.04687 7.60812 5.85938 7.67997 5.80469 8.12704C5.71875 8.78966 6.03906 9.26866 6.21875 10.1628C6.35938 10.8973 6.65625 11.009 6.82031 11.009C6.89062 11.009 6.9375 10.9931 6.9375 10.9931C6.9375 10.9931 7.08594 12.5817 7.3125 13.1565C7.53906 13.7393 8.08594 14.2582 8.08594 14.2582C8.08594 14.2582 8.08594 16.2301 7.85938 16.5016C7.63281 16.773 6.94531 16.9646 6.50781 17.1402C5.88281 17.3877 4.45312 17.4835 3.57813 17.7949C2.70313 18.1062 0 19.4075 0 23H21.7188C21.7188 19.4075 19.0234 18.1062 18.1406 17.7949Z" transform="translate(6.64062)" fill="#B9C0C3"/>
<path d="M8.75781 12.933C9.46094 12.5738 10.1484 12.5738 10.6797 12.5019C10.6797 12.5019 10.9766 12.0069 10 11.8313C10 11.8313 8.66406 11.488 8.50781 11.2964C8.35156 11.1048 8.44531 10.043 8.44531 10.043C8.44531 10.043 10.3125 9.97917 11.0547 9.30857C9.84375 7.45644 10.4922 5.29295 10.2422 3.27317C10 1.26137 8.82031 0 6.5625 0C6.55469 0 6.5625 0 6.48438 0C4.29688 0 3.17188 1.26137 2.92188 3.28115C2.67188 5.30094 3.39062 7.70392 2.14844 9.32454C2.84375 9.95522 4.5625 9.98716 4.75781 9.98716C4.77344 9.98716 4.77344 9.98716 4.77344 9.98716L4.78125 9.97917C4.78125 9.97917 4.85938 11.1128 4.70312 11.3044C4.54688 11.496 4.08594 11.6716 3.77344 11.7435C3.08594 11.8952 2.35938 12.1427 1.75781 12.3582C1.15625 12.5658 0 13.8112 0 15.328H6.26562C6.4375 14.6893 7.61719 13.5238 8.75781 12.933Z" transform="translate(0 3.83984)" fill="#B9C0C3"/>
<path d="M4.79687 15.328H11.0625C11.0625 13.8112 9.90625 12.5658 9.30469 12.3502C8.70312 12.1347 7.96875 11.8872 7.28906 11.7355C6.96875 11.6637 6.51562 11.488 6.35937 11.2964C6.20312 11.1048 6.28125 9.97119 6.28125 9.97119L6.28906 9.97917C6.28906 9.97917 6.29688 9.97917 6.30469 9.97917C6.5 9.97917 8.22656 9.95522 8.92188 9.31656C7.67969 7.69594 8.39062 5.29295 8.14062 3.27317C7.89062 1.26137 6.76562 0 4.57812 0C4.5 0 4.5 0 4.5 0C2.24219 0 1.05469 1.26137 0.812499 3.28115C0.562499 5.30094 1.21094 7.46442 -4.76837e-07 9.31656C0.742187 9.98716 2.60937 10.051 2.60937 10.051C2.60937 10.051 2.70312 11.1128 2.54687 11.3044C2.39062 11.496 1.05469 11.8393 1.05469 11.8393C0.0781246 12.0149 0.375001 12.5099 0.375001 12.5099C0.906251 12.5817 1.60156 12.5817 2.29687 12.941C3.44531 13.5238 4.625 14.6893 4.79687 15.328Z" transform="translate(23.9373 3.83984)" fill="#B9C0C3"/>
</svg>
