<svg width="24" height="23" viewBox="0 0 24 23" fill="none" xmlns="http://www.w3.org/2000/svg">
<path d="M24 9.09374C24 8.48536 23.5261 7.99166 22.9409 7.99166C22.9032 7.99166 22.8661 7.99389 22.8296 7.99741L15.5153 7.81197L13.0166 0.79937C12.8907 0.337903 12.4836 0 12.0001 0C11.516 0 11.1095 0.337903 10.983 0.79937L8.48383 7.81197L1.1699 7.99741C1.1332 7.99352 1.0958 7.99166 1.05858 7.99166C0.473889 7.99111 0 8.48499 0 9.09374C0 9.48277 0.193175 9.82327 0.484573 10.0195L6.31031 14.447L4.23157 21.3929C4.1561 21.5435 4.11302 21.7155 4.11302 21.8974C4.11302 22.5063 4.58691 23 5.17212 23C5.41992 23 5.64876 22.9103 5.82901 22.761L12.0006 18.5489L18.1719 22.761C18.3526 22.9103 18.5804 23 18.8287 23C19.4134 23 19.8873 22.5063 19.8873 21.8974C19.8873 21.716 19.8442 21.5443 19.7688 21.3929L17.6902 14.447L23.5158 10.0195C23.8065 9.8229 24 9.48222 24 9.09374Z" transform="translate(24) scale(-1 1)" fill="#B9C0C3"/>
</svg>
