<svg width="50" height="51" viewBox="0 0 50 51" fill="none" xmlns="http://www.w3.org/2000/svg">
<path d="M8.05902 1.38282C7.16734 0.49101 5.98162 -1.02677e-07 4.72089 -1.02677e-07C3.46009 -1.02677e-07 2.27437 0.49101 1.38262 1.38282C0.491014 2.27442 -7.52972e-07 3.46 -7.52972e-07 4.72078C-7.52972e-07 5.98178 0.491014 7.16735 1.38262 8.05902C2.27437 8.95069 3.45974 9.44149 4.7204 9.4417C4.72089 9.4417 4.72089 9.4417 4.72089 9.4417C5.98162 9.4417 7.16734 8.95069 8.05902 8.05902C8.95069 7.16721 9.44171 5.98171 9.44171 4.72078C9.44157 3.46 8.95055 2.27449 8.05902 1.38282ZM6.1811 6.1812C5.79096 6.57148 5.27268 6.78653 4.72075 6.78653C4.16896 6.78639 3.65033 6.57148 3.26039 6.1812C2.87025 5.79133 2.65526 5.27277 2.65526 4.72085C2.65526 4.16935 2.87011 3.65058 3.26039 3.26051C3.65033 2.87043 4.16931 2.65559 4.72075 2.65559C5.27225 2.65559 5.79096 2.87029 6.1811 3.26051C6.98663 4.06575 6.98663 5.37595 6.1811 6.1812Z" transform="translate(29.5977 10.9609)" fill="#9B51E0"/>
<path d="M1.32763 10.333C0.987882 10.333 0.648202 10.2035 0.388921 9.94426C-0.12964 9.42577 -0.12964 8.58478 0.388921 8.06644L8.06641 0.388866C8.58497 -0.129621 9.42569 -0.129621 9.94425 0.388866C10.4628 0.907354 10.4628 1.74835 9.94425 2.26683L2.26648 9.94426C2.00727 10.2035 1.66752 10.333 1.32763 10.333Z" transform="translate(0 30.5938)" fill="#9B51E0"/>
<path d="M1.32784 10.6579C0.987882 10.6579 0.648202 10.5282 0.388921 10.2689C-0.129641 9.75043 -0.129641 8.90986 0.388921 8.39137L8.39137 0.388917C8.90993 -0.129641 9.75065 -0.129641 10.269 0.388917C10.7876 0.907475 10.7876 1.74826 10.269 2.26675L2.26669 10.2689C2.00748 10.5282 1.66752 10.6579 1.32784 10.6579Z" transform="translate(1.7168 37.625)" fill="#9B51E0"/>
<path d="M1.32784 10.3331C0.987952 10.3331 0.648202 10.2036 0.388921 9.94437C-0.12964 9.42588 -0.12964 8.58503 0.388921 8.06661L8.06662 0.388759C8.58504 -0.129518 9.4259 -0.129658 9.94425 0.388759C10.4628 0.907247 10.4628 1.74824 9.94425 2.2668L2.26676 9.94437C2.00748 10.2036 1.66773 10.3331 1.32784 10.3331Z" transform="translate(9.07324 39.668)" fill="#9B51E0"/>
<path d="M46.8981 0.389161C46.5966 0.0877558 46.1685 -0.0508905 45.7484 0.0168907C45.594 0.0419144 41.9138 0.646338 36.8989 2.56244C33.9567 3.68633 31.1616 5.03235 28.5906 6.56314C25.4336 8.44265 22.6076 10.6091 20.1863 13.0028L10.1589 14.9549C9.90004 15.0052 9.66221 15.1318 9.47527 15.3178L0.390557 24.3733C-0.0234937 24.7858 -0.118822 25.4203 0.155038 25.9364C0.388454 26.3759 0.843229 26.6415 1.32737 26.6415C1.41163 26.6415 1.49665 26.6335 1.58168 26.6172L11.8285 24.6221C11.1615 25.9309 10.5374 27.2895 9.95815 28.6977C9.7546 29.1934 9.8685 29.7627 10.2473 30.1418L12.7575 32.652L10.4254 34.984C9.90684 35.5026 9.90684 36.3431 10.4254 36.8616C10.6847 37.1209 11.0244 37.2506 11.3645 37.2506C11.7042 37.2506 12.0439 37.1209 12.3032 36.8618L14.6352 34.5297L17.1454 37.04C17.3995 37.2937 17.739 37.4289 18.0847 37.4289C18.2545 37.4289 18.4261 37.3962 18.5893 37.3289C19.9976 36.7498 21.3563 36.1258 22.6647 35.459L20.6701 45.7058C20.5585 46.2793 20.8348 46.8583 21.3507 47.1323C21.5474 47.2366 21.7609 47.2874 21.973 47.2874C22.3177 47.2874 22.6584 47.153 22.9135 46.8968L31.9689 37.8123C32.1551 37.6256 32.2815 37.3875 32.3321 37.1287L34.2839 27.1013C36.6775 24.6798 38.8442 21.8541 40.7239 18.697C42.2544 16.1257 43.6006 13.3307 44.7247 10.3887C46.6404 5.37343 47.2452 1.69369 47.2701 1.53934C47.3378 1.11821 47.1991 0.690357 46.8981 0.389161ZM5.35152 23.1775L11.0635 17.4842L17.209 16.2877C15.8761 17.9273 14.6396 19.6967 13.5047 21.5902L5.35152 23.1775ZM29.8024 36.2235L24.1092 41.9354L25.6963 33.7823C27.5904 32.6473 29.3594 31.411 30.9989 30.078L29.8024 36.2235ZM42.219 9.50458C40.5427 13.8764 37.4519 20.1801 32.2489 25.3831C29.8537 27.7781 27.0647 29.907 23.9154 31.7503C23.859 31.7784 23.8043 31.8102 23.7526 31.8461C22.0669 32.8234 20.2783 33.7196 18.392 34.5308L16.5131 32.6517L20.3059 28.8592C20.8243 28.3407 20.8243 27.4999 20.3059 26.9813C19.7873 26.4628 18.9466 26.4629 18.4281 26.9813L14.6353 30.7739L12.7563 28.8947C13.5679 27.0082 14.4639 25.2194 15.4415 23.5333C15.4771 23.482 15.5082 23.4282 15.5362 23.3725C17.3795 20.2226 19.5086 17.4332 21.9042 15.0376C27.107 9.83486 33.4107 6.74412 37.7826 5.06775C40.439 4.04879 42.7258 3.41345 44.2376 3.04924C43.8733 4.56124 43.2379 6.84814 42.219 9.50458Z" transform="translate(2.71289)" fill="#9B51E0"/>
</svg>
