<svg width="46" height="50" viewBox="0 0 46 50" fill="none" xmlns="http://www.w3.org/2000/svg">
<path d="M45.8661 41.569C45.8661 44.1732 45.0735 46.2294 43.4881 47.7376C41.9028 49.2459 39.7963 50 37.1685 50H8.69763C6.06987 50 3.96335 49.2459 2.378 47.7376C0.792657 46.2294 0 44.1732 0 41.569C0 40.4188 0.0380155 39.2958 0.114014 38.1999C0.190012 37.1039 0.342042 35.9212 0.570069 34.6517C0.798097 33.3822 1.08584 32.2048 1.43332 31.1198C1.7808 30.0347 2.2477 28.9768 2.83406 27.946C3.42042 26.9151 4.09365 26.0362 4.85373 25.3092C5.61381 24.5823 6.54221 24.0017 7.63893 23.5677C8.73564 23.1337 9.94634 22.9167 11.2711 22.9167C11.4665 22.9167 11.9226 23.15 12.6392 23.6165C13.3559 24.0831 14.1649 24.6039 15.0661 25.179C15.9674 25.7541 17.1401 26.275 18.5843 26.7415C20.0284 27.2081 21.478 27.4414 22.9331 27.4414C24.3881 27.4414 25.8377 27.2081 27.2819 26.7415C28.726 26.275 29.8988 25.7541 30.8 25.179C31.7013 24.6039 32.5102 24.0831 33.2269 23.6165C33.9436 23.15 34.3996 22.9167 34.5951 22.9167C35.9198 22.9167 37.1305 23.1337 38.2272 23.5677C39.3239 24.0017 40.2523 24.5823 41.0124 25.3092C41.7725 26.0362 42.4457 26.9151 43.0321 27.946C43.6184 28.9768 44.0853 30.0347 44.4328 31.1198C44.7803 32.2048 45.068 33.3822 45.2961 34.6517C45.5241 35.9212 45.6761 37.1039 45.7521 38.1999C45.8281 39.2958 45.8661 40.4188 45.8661 41.569ZM35.442 12.5C35.442 15.9505 34.2204 18.8965 31.7773 21.3379C29.3341 23.7793 26.3861 25 22.9331 25C19.4801 25 16.532 23.7793 14.0889 21.3379C11.6457 18.8965 10.4241 15.9505 10.4241 12.5C10.4241 9.04948 11.6457 6.10352 14.0889 3.66211C16.532 1.2207 19.4801 0 22.9331 0C26.3861 0 29.3341 1.2207 31.7773 3.66211C34.2204 6.10352 35.442 9.04948 35.442 12.5Z" fill="#BDBDBD"/>
</svg>
